<svg viewBox="0 0 28 30" fill="none" xmlns="http://www.w3.org/2000/svg">
<path d="M6.89603 20.805L7.36103 21.846C7.49091 22.1359 7.73041 22.3624 8.02703 22.476L8.84904 22.776L8.60003 23.46C8.53725 23.6239 8.50739 23.7985 8.51217 23.974C8.51695 24.1494 8.55627 24.3221 8.62788 24.4824C8.69949 24.6426 8.80198 24.7871 8.9295 24.9077C9.05702 25.0282 9.20706 25.1225 9.37103 25.185L10.04 25.44L9.74003 26.259C9.626 26.5561 9.63463 26.8863 9.76404 27.177L10.16 28.077C10.2198 28.2135 10.3059 28.3367 10.4135 28.4397C10.5211 28.5427 10.6481 28.6233 10.787 28.677L13.334 29.652C13.5817 29.7357 13.8521 29.7198 14.0883 29.6079C14.3245 29.496 14.508 29.2966 14.6 29.052L15.578 26.505C15.6841 26.2251 15.6755 25.9146 15.554 25.641L12.326 18.381C12.5049 18.1644 12.6702 17.937 12.821 17.7C12.9265 17.5313 12.9606 17.3277 12.9158 17.1339C12.8711 16.94 12.7512 16.7719 12.5825 16.6665C12.4139 16.5611 12.2102 16.527 12.0164 16.5717C11.8226 16.6164 11.6545 16.7363 11.549 16.905C11.362 17.2044 11.1449 17.4838 10.901 17.739C10.7977 17.8466 10.7288 17.9826 10.7032 18.1295C10.6775 18.2765 10.6963 18.4278 10.757 18.564L14.129 26.1L13.382 28.044L11.438 27.3L11.156 26.67L11.633 25.425C11.6779 25.3114 11.6998 25.1901 11.6973 25.068C11.6948 24.9459 11.6681 24.8255 11.6187 24.7139C11.5693 24.6022 11.4982 24.5015 11.4095 24.4175C11.3208 24.3336 11.2163 24.2682 11.102 24.225L10.046 23.82L10.454 22.8C10.4989 22.6864 10.5208 22.5651 10.5183 22.443C10.5158 22.3209 10.4891 22.2005 10.4397 22.0889C10.3903 21.9772 10.3192 21.8765 10.2305 21.7925C10.1418 21.7086 10.0373 21.6432 9.92303 21.6L8.67803 21.12L8.07803 19.752C8.0182 19.6149 7.91826 19.4991 7.79135 19.4198C7.66444 19.3406 7.51652 19.3016 7.36703 19.308C6.47005 19.339 5.58053 19.1352 4.7865 18.7168C3.99247 18.2984 3.32146 17.6799 2.83988 16.9226C2.3583 16.1652 2.08285 15.2952 2.04078 14.3986C1.99871 13.5021 2.19149 12.6101 2.60003 11.811C2.69034 11.6328 2.70615 11.426 2.64398 11.2361C2.58181 11.0462 2.44676 10.8888 2.26853 10.7985C2.09031 10.7082 1.88351 10.6924 1.69363 10.7546C1.50375 10.8167 1.34634 10.9518 1.25603 11.13C0.748825 12.1229 0.499221 13.2272 0.530149 14.3417C0.561077 15.4562 0.871544 16.545 1.43303 17.5082C1.99452 18.4714 2.78904 19.2781 3.7436 19.8541C4.69815 20.4302 5.78216 20.7572 6.89603 20.805Z" fill="currentColor"/>
<path d="M6.98899 14.151C8.17134 14.9239 9.54678 15.3497 10.959 15.3799C12.3713 15.4101 13.7637 15.0436 14.978 14.322L16.133 15.078C16.4042 15.2573 16.7345 15.324 17.054 15.264H17.084L18.182 15.036L18.374 15.954C18.4122 16.1368 18.486 16.3103 18.5913 16.4646C18.6965 16.6189 18.8312 16.7509 18.9874 16.8531C19.1437 16.9554 19.3186 17.0258 19.5021 17.0605C19.6857 17.0951 19.8742 17.0933 20.057 17.055L20.975 16.863L21.2 17.952C21.2681 18.2803 21.4633 18.5682 21.743 18.753L22.676 19.353C22.8684 19.4798 23.0936 19.5476 23.324 19.548C23.4056 19.5483 23.487 19.5403 23.567 19.524L26.642 18.9C26.9137 18.8431 27.1516 18.6806 27.3035 18.4482C27.4554 18.2159 27.5088 17.9327 27.452 17.661L26.813 14.586C26.7812 14.4333 26.7195 14.2885 26.6314 14.1598C26.5434 14.031 26.4307 13.921 26.3 13.836L18.602 8.79002C18.7714 7.4544 18.5802 6.09778 18.0483 4.861C17.5163 3.62423 16.663 2.55239 15.5769 1.75678C14.4908 0.961163 13.2116 0.470778 11.872 0.336538C10.5323 0.202297 9.18121 0.429095 7.95885 0.993383C6.73649 1.55767 5.68746 2.43888 4.92068 3.54551C4.1539 4.65214 3.69732 5.94385 3.59835 7.28653C3.49938 8.62921 3.76163 9.97391 4.35786 11.181C4.9541 12.3881 5.86258 13.4136 6.98899 14.151ZM6.06499 4.53302C6.83097 3.35884 7.9816 2.48774 9.31957 2.0691C10.6575 1.65046 12.0995 1.71037 13.3981 2.23855C14.6967 2.76673 15.7712 3.73027 16.4371 4.96394C17.103 6.19761 17.319 7.62454 17.048 9.00002C17.0193 9.14618 17.0348 9.29757 17.0926 9.43488C17.1503 9.57219 17.2475 9.68921 17.372 9.77102L25.373 15.021L25.895 17.52L23.396 18.042L22.652 17.556L22.331 16.011C22.3061 15.8879 22.2569 15.7711 22.1862 15.6672C22.1156 15.5634 22.025 15.4746 21.9197 15.4062C21.8144 15.3378 21.6965 15.291 21.573 15.2687C21.4494 15.2463 21.3226 15.2488 21.2 15.276L19.817 15.576L19.517 14.193C19.4916 14.0715 19.4426 13.9561 19.3726 13.8535C19.3026 13.7509 19.2131 13.6631 19.1092 13.5951C19.0053 13.5271 18.889 13.4803 18.7669 13.4573C18.6449 13.4343 18.5195 13.4355 18.398 13.461L16.871 13.77L15.392 12.801C15.2683 12.7178 15.1226 12.6734 14.9735 12.6734C14.8244 12.6734 14.6787 12.7178 14.555 12.801C13.4025 13.5962 12.0097 13.9664 10.6145 13.8485C9.21936 13.7305 7.90847 13.1316 6.90591 12.1542C5.90336 11.1768 5.27138 9.88155 5.118 8.48982C4.96462 7.09809 5.29935 5.6963 6.06499 4.52402V4.53302Z" fill="currentColor"/>
<path d="M8.21899 8.73295C8.59902 8.98396 9.04455 9.11752 9.49999 9.11695C9.66131 9.11637 9.82215 9.09928 9.97999 9.06595C10.5087 8.95593 10.9828 8.66602 11.3217 8.2456C11.6605 7.82517 11.8431 7.30026 11.8384 6.7603C11.8336 6.22033 11.6418 5.69873 11.2955 5.28435C10.9493 4.86998 10.4701 4.58848 9.93957 4.48782C9.40905 4.38715 8.86004 4.47356 8.38608 4.7323C7.91213 4.99105 7.54255 5.40613 7.34032 5.90682C7.1381 6.40751 7.11574 6.96283 7.27705 7.47815C7.43837 7.99348 7.77337 8.43693 8.22499 8.73295H8.21899ZM8.80099 6.33295C8.86076 6.24096 8.93822 6.16176 9.02886 6.09996C9.1195 6.03816 9.22152 5.99498 9.32899 5.97295C9.38523 5.96116 9.44253 5.95513 9.49999 5.95495C9.65055 5.95501 9.79828 5.99582 9.92752 6.07306C10.0568 6.1503 10.1627 6.26108 10.234 6.39365C10.3054 6.52622 10.3395 6.67564 10.3328 6.82605C10.3261 6.97645 10.2789 7.12225 10.196 7.24795C10.0673 7.41032 9.8828 7.51898 9.67839 7.55278C9.47399 7.58657 9.26432 7.54307 9.09023 7.43075C8.91614 7.31843 8.79009 7.14534 8.73662 6.94518C8.68315 6.74502 8.7061 6.53212 8.80099 6.34795V6.33295Z" fill="currentColor"/>
</svg>
