<svg width="50" height="50" viewBox="0 0 50 50" fill="none" xmlns="http://www.w3.org/2000/svg">
<path d="M42.2213 22.7347C43.9978 24.5112 46.8291 24.5112 48.6611 22.7903C50.4377 21.0137 50.4377 18.1824 48.7167 16.3504C46.9401 14.5739 44.1088 14.5739 42.3323 16.2949C41.4441 17.1831 40.9999 18.2935 40.9999 19.4593L33.2832 21.4024C33.5608 22.1241 33.7273 22.8458 33.8384 23.623L41.5551 21.6799C41.7216 22.1241 41.9437 22.4572 42.2213 22.7347Z" fill="currentColor"/>
<path d="M25.0662 40.5551L25.0106 34.8369C24.9551 34.8369 24.9551 34.8369 24.8996 34.8369C24.1779 34.8924 23.4562 34.8924 22.7345 34.8369L22.79 40.5551C20.6804 41.1102 19.237 43.1643 19.459 45.4405C19.7366 47.9387 21.9573 49.7152 24.4555 49.4376C26.9537 49.16 28.7302 46.9394 28.4526 44.4412C28.2861 42.4981 26.8982 40.9992 25.0662 40.5551Z" fill="currentColor"/>
<path d="M13.63 26.8983L8.30045 28.7858C7.41219 27.4534 5.80222 26.6207 4.02571 26.7872C1.52749 27.0648 -0.249022 29.2855 0.0285583 31.7837C0.306138 34.2819 2.52678 36.0584 5.025 35.7808C7.46771 35.5032 9.24422 33.3381 9.02215 30.8954L14.3517 29.0079C14.0741 28.3972 13.7965 27.6755 13.63 26.8983Z" fill="currentColor"/>
<path d="M20.4581 14.7403L17.3492 8.02287C18.515 7.07909 19.1257 5.58016 18.9592 4.02571C18.6816 1.52749 16.4609 -0.249022 13.9627 0.0285583C11.4645 0.306138 9.68799 2.52678 9.96557 5.025C10.2432 7.52322 12.4638 9.29974 14.962 9.02216C15.073 9.02216 15.1841 8.96664 15.2396 8.96664L18.3485 15.6841C19.0147 15.351 19.7364 15.0179 20.4581 14.7403Z" fill="currentColor"/>
<path d="M23.7342 32.3389C28.0266 32.3389 31.5064 28.8592 31.5064 24.5667C31.5064 20.2742 28.0266 16.7944 23.7342 16.7944C19.4417 16.7944 15.9619 20.2742 15.9619 24.5667C15.9619 28.8592 19.4417 32.3389 23.7342 32.3389Z" fill="currentColor"/>
</svg>
