<svg viewBox="0 0 28 28" fill="none" xmlns="http://www.w3.org/2000/svg">
<path fill-rule="evenodd" clip-rule="evenodd" d="M9.20358 3.94083C9.3776 3.71364 9.56658 3.49604 9.77003 3.28949C9.82292 3.2358 9.87681 3.18286 9.93166 3.13066L9.62784 2.60441C9.40012 2.21 9.53525 1.70565 9.92966 1.47793L11.358 0.653274C11.7525 0.425554 12.2568 0.560683 12.4845 0.955099L12.7883 1.48135C12.861 1.45994 12.9338 1.43977 13.0067 1.42078C13.2849 1.34848 13.5655 1.29398 13.8468 1.25681C14.1315 1.21899 14.4201 1.19858 14.7111 1.1964C14.7865 1.19582 14.862 1.19651 14.9377 1.19839L15.095 0.611428C15.2128 0.171521 15.665 -0.0895694 16.105 0.028299L17.6981 0.455203C18.138 0.573072 18.3991 1.02525 18.2812 1.4652L18.1239 2.05216C18.1904 2.08833 18.2561 2.12554 18.3211 2.16374C18.569 2.30934 18.806 2.46917 19.0312 2.64185C19.2593 2.81645 19.4777 3.00604 19.685 3.21021C19.7387 3.2631 19.7916 3.317 19.8438 3.37184L20.3701 3.06803C20.7645 2.8403 21.2688 2.97543 21.4965 3.36985L22.3212 4.79824C22.549 5.19266 22.4138 5.697 22.0194 5.92472L21.4931 6.22854C21.5145 6.30115 21.5347 6.37395 21.5537 6.44694C21.6266 6.72759 21.6815 7.01062 21.7186 7.29446C21.7558 7.57676 21.7759 7.86282 21.7781 8.1513C21.7786 8.22667 21.778 8.30223 21.7761 8.37791L22.363 8.53517C22.803 8.65304 23.064 9.10522 22.9462 9.54516L22.5193 11.1383C22.4014 11.5782 21.9492 11.8393 21.5093 11.7214L20.9223 11.5641C20.8861 11.6306 20.8489 11.6964 20.8108 11.7614C20.6639 12.0114 20.5026 12.2503 20.3282 12.4772C20.1548 12.7031 19.9667 12.9197 19.7643 13.1252C19.7114 13.1789 19.6575 13.2318 19.6026 13.284L19.9064 13.8103C20.1342 14.2047 19.999 14.7091 19.6046 14.9368L18.1762 15.7614C17.7818 15.9892 17.2775 15.854 17.0498 15.4596L16.7459 14.9333C16.6733 14.9547 16.6005 14.9749 16.5275 14.9939C16.246 15.0671 15.9621 15.122 15.6774 15.1592C15.3959 15.1961 15.1107 15.2161 14.8232 15.2183C14.7478 15.2188 14.6723 15.2182 14.5966 15.2163L14.4393 15.8032C14.3214 16.2432 13.8693 16.5042 13.4293 16.3864L11.8362 15.9595C11.3963 15.8416 11.1352 15.3894 11.2531 14.9495L11.4104 14.3625C11.3439 14.3263 11.2781 14.2891 11.2131 14.251C10.9622 14.1036 10.7225 13.9416 10.4949 13.7665C10.2698 13.5937 10.0541 13.4062 9.84931 13.2045C9.79561 13.1516 9.74264 13.0977 9.69048 13.0428L9.16423 13.3466C8.76981 13.5744 8.26547 13.4392 8.03775 13.0448L7.21309 11.6164C6.98533 11.222 7.1205 10.7177 7.51491 10.49L8.04116 10.1861C8.01976 10.1135 7.99954 10.0407 7.9806 9.96773C7.90818 9.68907 7.8536 9.40808 7.81643 9.12627C7.77873 8.84202 7.7584 8.55392 7.75621 8.26341C7.75564 8.18801 7.75629 8.11248 7.75821 8.03681L7.17124 7.87955C6.73134 7.76164 6.47025 7.30946 6.58811 6.86955L7.01502 5.27643C7.13289 4.83648 7.58507 4.57543 8.02501 4.6933L8.61194 4.85056C8.64815 4.78409 8.68535 4.71835 8.72352 4.65333C8.86965 4.40455 9.03014 4.16675 9.20358 3.94083ZM15.8915 0.82488L17.4846 1.25175L17.1593 2.46595L17.7296 2.7764C17.7882 2.80832 17.8462 2.84111 17.9035 2.87479L17.9034 2.87529C18.1193 3.00205 18.3283 3.14236 18.5289 3.29586C18.7323 3.45178 18.9249 3.61959 19.1058 3.79794L19.1062 3.79767C19.1536 3.84432 19.2003 3.89185 19.2463 3.94021L19.6938 4.41073L20.7824 3.78218L21.607 5.21057L20.5184 5.83907L20.7021 6.46186C20.7211 6.52588 20.7389 6.59005 20.7555 6.65437L20.7551 6.65464C20.8189 6.8997 20.8678 7.14951 20.9011 7.40278C20.934 7.65409 20.9512 7.90605 20.953 8.15732L20.9535 8.15747C20.9539 8.22391 20.9533 8.29053 20.9517 8.35723L20.9354 9.00637L22.1496 9.33171L21.7227 10.9248L20.5086 10.5995L20.1981 11.1698C20.1662 11.2284 20.1334 11.2864 20.0997 11.3437L20.0992 11.3436C19.971 11.562 19.829 11.7732 19.6734 11.9759C19.519 12.1768 19.3529 12.3671 19.1765 12.546L19.1768 12.5465C19.1302 12.5938 19.0826 12.6405 19.0343 12.6865L18.5638 13.134L19.1923 14.2226L17.7639 15.0472L17.1354 13.9587L16.5126 14.1423C16.4486 14.1613 16.3844 14.179 16.3201 14.1958L16.3198 14.1953C16.074 14.2593 15.8233 14.3083 15.5692 14.3417C15.3187 14.3743 15.0676 14.3913 14.8172 14.3932L14.817 14.3936C14.7506 14.3941 14.684 14.3936 14.6172 14.3919L13.9681 14.3756L13.6428 15.5898L12.0496 15.1629L12.375 13.9488L11.8047 13.6383C11.7461 13.6064 11.6881 13.5736 11.6308 13.5399L11.6309 13.5394C11.4116 13.4107 11.1995 13.268 10.9961 13.1117C10.7961 12.9578 10.6067 12.7924 10.4285 12.6167L10.4281 12.617C10.3807 12.5703 10.334 12.5228 10.288 12.4745L9.84049 12.004L8.7519 12.6325L7.92724 11.2041L9.01583 10.5756L8.83214 9.95281C8.81323 9.88879 8.79543 9.82459 8.77875 9.7603L8.77917 9.76003C8.71588 9.51689 8.66721 9.26904 8.63392 9.0178C8.60055 8.76454 8.58313 8.51058 8.58133 8.25735L8.58083 8.25724C8.58033 8.19077 8.58095 8.12418 8.5826 8.05744L8.59886 7.4083L7.38469 7.08296L7.81156 5.48984L9.02572 5.81518L9.33622 5.2449C9.36813 5.18629 9.40092 5.1283 9.4346 5.07099L9.43506 5.07115C9.56229 4.85443 9.70309 4.64478 9.85721 4.44356C10.0127 4.24089 10.18 4.04903 10.3578 3.86868L10.3575 3.86826C10.4041 3.82088 10.4517 3.7742 10.5 3.72821L10.9705 3.28071L10.342 2.19209L11.7703 1.36743L12.3989 2.45605L13.0217 2.27233C13.0857 2.25346 13.1499 2.23566 13.2142 2.21893L13.2144 2.21936C13.4568 2.15626 13.7039 2.1077 13.9543 2.07441C14.2083 2.04085 14.4631 2.02336 14.7171 2.02152L14.7173 2.02106C14.7837 2.02056 14.8503 2.02113 14.917 2.02278L15.5662 2.03904L15.8915 0.82488Z" fill="currentColor"/>
<path fill-rule="evenodd" clip-rule="evenodd" d="M15.4223 5.76202C14.0718 5.40017 12.6837 6.20158 12.3219 7.55206C11.96 8.90254 12.7614 10.2907 14.1119 10.6525C15.4624 11.0144 16.8505 10.2129 17.2124 8.86246C17.5742 7.51198 16.7728 6.12387 15.4223 5.76202ZM11.5809 7.35353C12.0524 5.59383 13.8611 4.54954 15.6208 5.02105C17.3806 5.49257 18.4249 7.30133 17.9534 9.06103C17.4819 10.8207 15.6731 11.865 13.9134 11.3935C12.1536 10.922 11.1094 9.11323 11.5809 7.35353Z" fill="currentColor"/>
<path fill-rule="evenodd" clip-rule="evenodd" d="M4.21918 16.4539H1.15068C0.515162 16.4539 0 16.969 0 17.6045V26.4265C0 27.062 0.515162 27.5771 1.15068 27.5771H4.21918C4.77895 27.5771 5.24536 27.1774 5.34857 26.6478L13.4781 27.8586C13.989 27.9347 14.5105 27.8368 14.9589 27.5805L26.3433 21.0752C27.3207 20.5167 27.5874 19.2279 26.9119 18.3274C26.3865 17.6267 25.4454 17.3842 24.6467 17.7436L18.0618 20.7068C17.8686 20.7937 17.7825 21.0208 17.8694 21.214C17.9563 21.4072 18.1834 21.4933 18.3766 21.4064L24.9615 18.4431C25.4328 18.2311 25.9882 18.3742 26.2983 18.7876C26.6968 19.3191 26.5394 20.0795 25.9627 20.4091L14.5783 26.9145C14.2794 27.0853 13.9317 27.1506 13.5911 27.0999L5.36986 25.8754V17.9881H8.78379C8.90599 17.9881 9.0277 18.0027 9.14641 18.0316L15.051 19.4678C15.4472 19.5642 15.726 19.919 15.726 20.3267C15.726 20.825 15.3143 21.2248 14.8161 21.2102L9.60032 21.0567C9.38859 21.0505 9.21188 21.2172 9.20563 21.4289C9.19942 21.6406 9.36604 21.8173 9.57776 21.8236L14.7936 21.9769C15.724 22.0043 16.4931 21.2575 16.4931 20.3267C16.4931 19.5652 15.9723 18.9024 15.2323 18.7224L9.32772 17.2862C9.14967 17.2429 8.96706 17.221 8.78379 17.221H5.30439C5.14644 16.7741 4.72019 16.4539 4.21918 16.4539ZM0.767123 17.6045C0.767123 17.3927 0.938844 17.221 1.15068 17.221H4.21918C4.43102 17.221 4.60274 17.3927 4.60274 17.6045V26.4265C4.60274 26.6383 4.43102 26.81 4.21918 26.81H1.15068C0.938844 26.81 0.767123 26.6383 0.767123 26.4265V17.6045Z" fill="currentColor"/>
</svg>
